<?xml version="1.0" encoding="UTF-8" standalone="no"?>
<svg
   xmlns:dc="http://purl.org/dc/elements/1.1/"
   xmlns:cc="http://creativecommons.org/ns#"
   xmlns:rdf="http://www.w3.org/1999/02/22-rdf-syntax-ns#"
   xmlns:svg="http://www.w3.org/2000/svg"
   xmlns="http://www.w3.org/2000/svg"
   xmlns:sodipodi="http://sodipodi.sourceforge.net/DTD/sodipodi-0.dtd"
   xmlns:inkscape="http://www.inkscape.org/namespaces/inkscape"
   height="14"
   viewBox="0 0 11 14"
   width="11"
   version="1.1"
   id="svg6"
   sodipodi:docname="play-light.svg"
   inkscape:version="1.0.2 (e86c870879, 2021-01-15)">
  <metadata
     id="metadata12">
    <rdf:RDF>
      <cc:Work
         rdf:about="">
        <dc:format>image/svg+xml</dc:format>
        <dc:type
           rdf:resource="http://purl.org/dc/dcmitype/StillImage" />
      </cc:Work>
    </rdf:RDF>
  </metadata>
  <defs
     id="defs10" />
  <sodipodi:namedview
     pagecolor="#ffffff"
     bordercolor="#666666"
     borderopacity="1"
     objecttolerance="10"
     gridtolerance="10"
     guidetolerance="10"
     inkscape:pageopacity="0"
     inkscape:pageshadow="2"
     inkscape:window-width="2560"
     inkscape:window-height="1017"
     id="namedview8"
     showgrid="false"
     inkscape:zoom="12.521683"
     inkscape:cx="-7.9496094"
     inkscape:cy="12.02796"
     inkscape:window-x="-8"
     inkscape:window-y="-8"
     inkscape:window-maximized="1"
     inkscape:current-layer="svg6"
     inkscape:document-rotation="0" />
  <path
     d="m -6.5,-5 h 24 v 24 h -24 z"
     fill="none"
     id="path2" />
  <path
     id="path4"
     d="M 0,0 V 14 L 11,7 Z M 0.8359375,1.5742188 0.96875,1.6582031 C 5.780742,4.7165746 9.326172,6.982293 9.326172,7 c 0,0.0177 -3.54543,2.283425 -8.357422,5.341797 l -0.1328125,0.08398 V 7 Z" />
  <path
     style="fill:#4fffff;fill-opacity:0;fill-rule:evenodd;stroke-width:1;stroke-miterlimit:4;stroke-dasharray:none"
     d="M 3.509412,7 V 3.6626898 l 0.08211,0.052184 C 6.550786,5.595702 8.730532,6.989111 8.730532,7 c 0,0.01089 -2.179746,1.404298 -5.13901,3.285126 l -0.08211,0.05218 z"
     id="path2754" />
  <path
     style="fill:#4fffff;fill-opacity:0;fill-rule:evenodd;stroke-width:1;stroke-miterlimit:4;stroke-dasharray:none"
     d="M 3.509412,7 V 3.6626898 l 0.08211,0.052184 C 6.550786,5.595702 8.730532,6.989111 8.730532,7 c 0,0.01089 -2.179746,1.404298 -5.13901,3.285126 l -0.08211,0.05218 z"
     id="path2756" />
  <path
     style="fill:#4fffff;fill-opacity:0;fill-rule:evenodd;stroke-width:1;stroke-miterlimit:4;stroke-dasharray:none"
     d="M 3.509412,7 V 3.6626898 l 0.08211,0.052184 C 6.550786,5.595702 8.730532,6.989111 8.730532,7 c 0,0.01089 -2.179746,1.404298 -5.13901,3.285126 l -0.08211,0.05218 z"
     id="path2758" />
  <path
     style="fill:#4fffff;fill-opacity:0;fill-rule:evenodd;stroke-width:1;stroke-miterlimit:4;stroke-dasharray:none"
     d="M 3.509412,7 V 3.6626898 l 0.08211,0.052184 C 6.550786,5.595702 8.730532,6.989111 8.730532,7 c 0,0.01089 -2.179746,1.404298 -5.13901,3.285126 l -0.08211,0.05218 z"
     id="path2760" />
  <path
     style="fill:#4fffff;fill-opacity:0;fill-rule:evenodd;stroke-width:1;stroke-miterlimit:4;stroke-dasharray:none"
     d="M 3.509412,7 V 3.6626898 l 0.08211,0.052184 C 6.550786,5.595702 8.730532,6.989111 8.730532,7 c 0,0.01089 -2.179746,1.404298 -5.13901,3.285126 l -0.08211,0.05218 z"
     id="path2762" />
  <path
     style="fill:#4fffff;fill-opacity:0;fill-rule:evenodd;stroke-width:1;stroke-miterlimit:4;stroke-dasharray:none"
     d="M 3.509412,7 V 3.6626898 l 0.08211,0.052184 C 6.550786,5.595702 8.730532,6.989111 8.730532,7 c 0,0.01089 -2.179746,1.404298 -5.13901,3.285126 l -0.08211,0.05218 z"
     id="path2764" />
  <path
     style="fill:#4fffff;fill-opacity:0;fill-rule:evenodd;stroke-width:1;stroke-miterlimit:4;stroke-dasharray:none"
     d="M 3.509412,7 V 3.6626898 l 0.08211,0.052184 C 6.550786,5.595702 8.730532,6.989111 8.730532,7 c 0,0.01089 -2.179746,1.404298 -5.13901,3.285126 l -0.08211,0.05218 z"
     id="path2766" />
  <path
     style="fill:#4fffff;fill-opacity:0;fill-rule:evenodd;stroke-width:1;stroke-miterlimit:4;stroke-dasharray:none"
     d="M 3.509412,7 V 3.6626898 l 0.08211,0.052184 C 6.550786,5.595702 8.730532,6.989111 8.730532,7 c 0,0.01089 -2.179746,1.404298 -5.13901,3.285126 l -0.08211,0.05218 z"
     id="path2768" />
  <path
     style="fill:#4fffff;fill-opacity:0;fill-rule:evenodd;stroke-width:1;stroke-miterlimit:4;stroke-dasharray:none"
     d="M 3.509412,7 V 3.6626898 l 0.08211,0.052184 C 6.550786,5.595702 8.730532,6.989111 8.730532,7 c 0,0.01089 -2.179746,1.404298 -5.13901,3.285126 l -0.08211,0.05218 z"
     id="path2770" />
  <path
     style="fill:#4fffff;fill-opacity:0;fill-rule:evenodd;stroke-width:1;stroke-miterlimit:4;stroke-dasharray:none"
     d="M 3.509412,7 V 3.6626898 l 0.08211,0.052184 C 6.550786,5.595702 8.730532,6.989111 8.730532,7 c 0,0.01089 -2.179746,1.404298 -5.13901,3.285126 l -0.08211,0.05218 z"
     id="path2772" />
  <path
     style="fill:#4fffff;fill-opacity:0;fill-rule:evenodd;stroke-width:1;stroke-miterlimit:4;stroke-dasharray:none"
     d="M 3.509412,7 V 3.6626898 l 0.08211,0.052184 C 6.550786,5.595702 8.730532,6.989111 8.730532,7 c 0,0.01089 -2.179746,1.404298 -5.13901,3.285126 l -0.08211,0.05218 z"
     id="path2774" />
  <path
     style="fill:#4fffff;fill-opacity:0;fill-rule:evenodd;stroke-width:1;stroke-miterlimit:4;stroke-dasharray:none"
     d="M 3.509412,7 V 3.6626898 l 0.08211,0.052184 C 6.550786,5.595702 8.730532,6.989111 8.730532,7 c 0,0.01089 -2.179746,1.404298 -5.13901,3.285126 l -0.08211,0.05218 z"
     id="path2776" />
  <path
     style="fill:#4fffff;fill-opacity:0;fill-rule:evenodd;stroke-width:1;stroke-miterlimit:4;stroke-dasharray:none"
     d="M 3.509412,7 V 3.6626898 l 0.08211,0.052184 C 6.550786,5.595702 8.730532,6.989111 8.730532,7 c 0,0.01089 -2.179746,1.404298 -5.13901,3.285126 l -0.08211,0.05218 z"
     id="path2778" />
  <path
     style="fill:#4fffff;fill-opacity:0;fill-rule:evenodd;stroke-width:1;stroke-miterlimit:4;stroke-dasharray:none"
     d="M 3.509412,7 V 3.6626898 l 0.08211,0.052184 C 6.550786,5.595702 8.730532,6.989111 8.730532,7 c 0,0.01089 -2.179746,1.404298 -5.13901,3.285126 l -0.08211,0.05218 z"
     id="path2780" />
  <path
     style="fill:#4fffff;fill-opacity:0;fill-rule:evenodd;stroke-width:1;stroke-miterlimit:4;stroke-dasharray:none"
     d="M 3.509412,7 V 3.6626898 l 0.08211,0.052184 C 6.550786,5.595702 8.730532,6.989111 8.730532,7 c 0,0.01089 -2.179746,1.404298 -5.13901,3.285126 l -0.08211,0.05218 z"
     id="path2782" />
  <path
     style="fill:#4fffff;fill-opacity:0;fill-rule:evenodd;stroke-width:1;stroke-miterlimit:4;stroke-dasharray:none"
     d="M 3.509412,7 V 3.6626898 l 0.08211,0.052184 C 6.550786,5.595702 8.730532,6.989111 8.730532,7 c 0,0.01089 -2.179746,1.404298 -5.13901,3.285126 l -0.08211,0.05218 z"
     id="path2784" />
  <path
     style="fill:#4fffff;fill-opacity:0;fill-rule:evenodd;stroke-width:1;stroke-miterlimit:4;stroke-dasharray:none"
     d="M 3.509412,7 V 3.6626898 l 0.08211,0.052184 C 6.550786,5.595702 8.730532,6.989111 8.730532,7 c 0,0.01089 -2.179746,1.404298 -5.13901,3.285126 l -0.08211,0.05218 z"
     id="path2786" />
  <path
     style="fill:#4fffff;fill-opacity:0;fill-rule:evenodd;stroke-width:1;stroke-miterlimit:4;stroke-dasharray:none"
     d="M 3.509412,7 V 3.6626898 l 0.08211,0.052184 C 6.550786,5.595702 8.730532,6.989111 8.730532,7 c 0,0.01089 -2.179746,1.404298 -5.13901,3.285126 l -0.08211,0.05218 z"
     id="path2788" />
  <path
     style="fill:#4fffff;fill-opacity:0;fill-rule:evenodd;stroke-width:1;stroke-miterlimit:4;stroke-dasharray:none"
     d="M 3.509412,7 V 3.6626898 l 0.08211,0.052184 C 6.550786,5.595702 8.730532,6.989111 8.730532,7 c 0,0.01089 -2.179746,1.404298 -5.13901,3.285126 l -0.08211,0.05218 z"
     id="path2790" />
</svg>
